# xmcd
#
# Track frame offsets: 
#        150
#        20070
#        29285
#        43742
#        58462
#        80257
#        98257
#        119167
#        136872
#        155485
#        179462
#        200085
#
# Disc length: 2979 seconds
#
# Revision: 0
# Processed by: cddbd v1.5.1PL0 Copyright (c) Steve Scherf et al.
# Submitted via: ExactAudioCopy v0.95a5
#
DISCID=a70ba10c
DTITLE=Barkays - Say It Through Love
DYEAR=1987
DGENRE=Funk
TTITLE0=Summer Of Our Love
TTITLE1=Attitudes
TTITLE2=I Lean On You/You Lean On Me
TTITLE3=Today Is The Day
TTITLE4=Running In And Out Of My Life
TTITLE5=Say It Through Love
TTITLE6=Unforgettable Dream
TTITLE7=Feels Like I'm Falling In Love
TTITLE8=I Can't Believe You're Leaving Me
TTITLE9=Make Believe Lover
TTITLE10=Paper Doll
TTITLE11=Love Don't Wait
EXTD=
EXTT0=
EXTT1=
EXTT2=
EXTT3=
EXTT4=
EXTT5=
EXTT6=
EXTT7=
EXTT8=
EXTT9=
EXTT10=
EXTT11=
PLAYORDER=
